<?xml version="1.0" standalone="no"?>
<!DOCTYPE svg PUBLIC "-//W3C//DTD SVG 20010904//EN"
 "http://www.w3.org/TR/2001/REC-SVG-20010904/DTD/svg10.dtd">
<svg version="1.0" xmlns="http://www.w3.org/2000/svg"
 width="1300.000000pt" height="1300.000000pt" viewBox="0 0 1300.000000 1300.000000"
 preserveAspectRatio="xMidYMid meet">
<metadata>
Created by potrace 1.14, written by Peter Selinger 2001-2017
</metadata>
<g transform="translate(0.000000,1300.000000) scale(0.100000,-0.100000)"
fill="#000000" stroke="none">
<path d="M6395 11874 c-8 -9 -15 -12 -15 -9 0 4 -16 -5 -35 -19 -19 -15 -35
-24 -35 -21 0 3 -19 -7 -42 -23 -24 -16 -53 -32 -65 -36 -13 -4 -23 -11 -23
-14 0 -4 -20 -16 -45 -27 -25 -11 -45 -23 -45 -26 0 -3 -18 -14 -40 -24 -22
-10 -40 -21 -40 -24 0 -3 -15 -13 -32 -20 -30 -13 -50 -24 -133 -77 -16 -10
-32 -19 -35 -19 -3 0 -18 -9 -35 -19 -61 -39 -101 -62 -130 -76 -16 -8 -33
-19 -36 -23 -3 -5 -14 -9 -23 -11 -10 -1 -22 -9 -27 -17 -5 -8 -9 -9 -9 -4 0
6 -3 6 -8 -1 -4 -6 -32 -24 -62 -41 -30 -17 -95 -54 -145 -83 -49 -29 -142
-83 -205 -119 -63 -36 -117 -69 -118 -73 -2 -5 -8 -6 -13 -2 -5 3 -9 1 -9 -4
0 -6 -13 -15 -30 -21 -16 -5 -30 -15 -30 -20 0 -6 -3 -10 -7 -9 -13 3 -83 -35
-83 -45 0 -5 -7 -7 -15 -3 -8 3 -15 1 -15 -4 0 -5 -12 -15 -27 -23 -56 -29
-128 -71 -133 -77 -3 -4 -30 -18 -61 -33 -31 -14 -62 -33 -69 -41 -7 -9 -16
-13 -21 -10 -5 3 -9 2 -9 -3 0 -4 -18 -17 -40 -27 -22 -11 -40 -23 -40 -28 0
-5 -4 -6 -10 -3 -6 3 -10 1 -10 -4 0 -6 -6 -11 -13 -11 -7 0 -36 -16 -65 -35
-28 -20 -52 -33 -52 -30 0 3 -19 -7 -42 -23 -24 -16 -63 -40 -88 -53 -25 -13
-47 -27 -50 -30 -3 -3 -20 -11 -37 -18 -18 -8 -33 -17 -33 -22 0 -4 -9 -11
-20 -14 -18 -6 -116 -62 -180 -103 -14 -9 -27 -17 -30 -17 -3 0 -21 -10 -41
-23 -20 -12 -41 -22 -48 -22 -6 0 -11 -4 -11 -10 0 -5 -4 -10 -9 -10 -5 0 -50
-25 -100 -55 -51 -30 -96 -55 -101 -55 -6 0 -10 -5 -10 -11 0 -5 -4 -8 -9 -5
-5 4 -11 3 -13 -1 -4 -10 -54 -41 -90 -56 -16 -6 -28 -15 -28 -19 0 -4 -6 -8
-14 -8 -8 0 -21 -6 -29 -14 -7 -8 -38 -27 -68 -42 -30 -15 -68 -38 -85 -51
-17 -13 -34 -20 -37 -16 -4 3 -7 1 -7 -5 0 -7 -6 -12 -14 -12 -7 0 -25 -9 -38
-20 -14 -10 -28 -16 -32 -13 -3 3 -6 2 -6 -3 0 -5 -25 -23 -55 -39 -30 -15
-55 -32 -55 -37 0 -5 -4 -7 -9 -4 -4 3 -23 -6 -41 -19 -19 -14 -40 -25 -47
-25 -7 0 -13 -4 -13 -10 0 -5 -6 -10 -13 -10 -7 0 -28 -11 -47 -25 -18 -13
-36 -22 -40 -20 -5 3 -11 -2 -14 -11 -3 -8 -10 -12 -16 -9 -5 3 -10 1 -10 -4
0 -6 -7 -11 -15 -11 -8 0 -15 -4 -15 -10 0 -5 -3 -9 -7 -8 -5 1 -19 -5 -33
-13 -71 -45 -131 -79 -140 -79 -6 0 -10 -4 -10 -10 0 -5 -7 -10 -16 -10 -23 0
0 -27 40 -46 62 -30 76 -39 76 -47 0 -4 5 -5 10 -2 6 3 10 1 10 -5 0 -6 4 -9
9 -6 4 3 18 -2 29 -12 11 -10 38 -27 59 -38 21 -10 40 -22 43 -25 3 -3 21 -14
40 -24 19 -10 37 -21 40 -24 3 -3 23 -15 45 -27 52 -27 89 -48 95 -54 3 -3 25
-16 50 -29 25 -14 47 -27 50 -30 3 -3 31 -19 63 -36 31 -16 57 -33 57 -37 0
-4 5 -8 11 -8 6 0 44 -20 84 -44 40 -25 76 -42 79 -39 3 4 6 2 6 -3 0 -5 17
-18 38 -29 20 -11 39 -22 42 -26 3 -3 12 -8 20 -12 8 -4 38 -20 65 -37 28 -17
58 -33 68 -37 9 -3 17 -8 17 -12 0 -4 16 -13 35 -21 19 -8 35 -17 35 -22 0 -4
6 -8 14 -8 8 0 16 -3 18 -7 2 -5 33 -24 71 -43 37 -19 67 -38 67 -42 0 -5 4
-8 9 -8 10 0 232 -128 241 -139 3 -3 12 -7 20 -9 8 -2 17 -8 18 -13 2 -5 8 -9
14 -9 6 0 45 -21 87 -46 42 -26 96 -58 120 -72 25 -14 67 -38 93 -53 27 -16
53 -29 58 -29 4 0 10 -3 12 -8 2 -4 57 -38 123 -76 66 -38 122 -73 123 -78 2
-4 12 -8 22 -8 10 0 20 -3 22 -7 4 -10 54 -41 91 -56 15 -6 27 -15 27 -19 0
-4 4 -8 10 -8 12 0 113 -61 121 -73 3 -5 8 -8 10 -8 13 2 49 -13 49 -20 0 -5
7 -9 15 -9 8 0 15 -4 15 -10 0 -5 5 -10 11 -10 6 0 23 -9 39 -20 15 -11 30
-17 34 -13 3 3 6 2 6 -4 0 -6 8 -13 18 -17 9 -3 24 -10 32 -16 39 -26 254
-150 260 -150 4 0 13 -7 20 -15 7 -8 16 -12 21 -9 5 3 9 0 9 -5 0 -6 7 -11 15
-11 8 0 15 -4 15 -8 0 -4 12 -13 28 -20 15 -6 45 -23 67 -37 22 -14 47 -28 55
-32 8 -4 17 -9 20 -12 3 -3 26 -17 53 -31 26 -13 47 -28 47 -33 0 -4 5 -5 10
-2 6 3 10 1 10 -5 0 -6 4 -9 8 -6 5 3 18 -2 28 -12 10 -9 37 -26 59 -38 55
-28 89 -48 95 -55 3 -3 20 -11 38 -18 17 -8 32 -17 32 -21 0 -4 14 -13 30 -20
17 -7 30 -16 30 -21 0 -5 3 -8 8 -8 12 3 72 -25 72 -33 0 -4 7 -8 15 -8 8 0
15 -4 15 -8 0 -5 16 -14 35 -22 19 -8 35 -17 35 -22 0 -4 6 -8 13 -8 6 0 23
-9 37 -20 14 -10 29 -15 35 -10 22 18 255 150 265 150 5 0 10 4 10 8 0 4 22
19 50 33 27 13 50 27 50 32 0 4 5 7 10 7 11 0 186 101 207 120 7 6 21 14 30
18 10 4 53 27 96 52 43 25 90 51 105 59 15 8 29 17 32 20 3 4 26 18 53 31 26
14 47 28 47 32 0 5 4 8 9 8 6 0 38 17 73 37 115 68 143 84 161 90 9 3 17 9 17
13 0 4 8 10 18 13 9 4 35 17 57 31 22 14 59 35 83 47 23 13 42 27 42 32 0 6 3
7 7 4 3 -4 13 -1 22 7 9 8 23 16 31 18 8 2 23 11 34 20 10 10 23 15 28 12 4
-3 8 0 8 5 0 6 7 11 15 11 8 0 15 4 15 8 0 5 15 15 33 24 17 8 74 41 126 72
51 31 100 56 108 56 7 0 16 7 19 15 4 8 12 15 20 15 8 0 14 5 14 12 0 6 3 8 6
5 4 -4 19 2 34 13 16 11 33 20 39 20 6 0 11 5 11 10 0 6 5 10 10 10 6 0 51 25
100 55 50 30 90 51 90 48 0 -4 6 1 13 11 7 9 22 18 34 19 12 0 20 4 18 7 -2 3
48 34 111 70 63 35 114 69 114 74 0 5 3 6 6 3 4 -4 19 2 34 13 16 11 31 20 34
20 4 0 42 22 86 50 44 27 80 46 80 42 0 -4 4 -2 8 4 4 6 37 28 74 48 37 21 70
42 74 47 3 5 14 9 25 9 10 0 19 4 19 9 0 5 17 18 38 28 20 11 64 35 97 54 33
20 71 42 85 50 14 8 28 18 31 22 3 5 8 8 10 6 2 -1 23 10 46 24 24 15 47 27
53 27 5 0 10 5 10 10 0 6 6 10 14 10 7 0 25 9 38 20 14 10 28 16 32 13 3 -3 6
-1 6 5 0 6 10 14 22 18 12 3 30 15 41 25 11 10 23 16 27 14 4 -3 13 2 20 10 7
8 19 15 26 15 8 0 22 9 31 20 10 11 23 20 29 20 6 0 23 9 38 21 14 11 26 17
26 12 0 -4 4 -3 8 2 4 6 25 19 47 30 22 11 42 23 45 26 3 4 23 17 45 29 22 11
58 32 80 45 22 14 59 34 81 46 23 12 54 31 69 43 l28 22 -44 22 c-24 12 -73
41 -109 63 -36 22 -65 40 -65 38 0 -1 -18 9 -40 23 -22 14 -60 36 -85 50 -92
52 -120 68 -159 92 -22 15 -43 26 -46 26 -3 0 -31 16 -61 35 -30 19 -56 35
-59 35 -3 0 -29 16 -59 35 -29 19 -56 31 -60 28 -3 -3 -8 2 -12 11 -3 9 -10
16 -15 16 -5 0 -34 15 -65 33 -99 57 -138 79 -181 102 -24 12 -40 25 -36 29 3
3 -3 6 -15 6 -11 0 -26 8 -31 18 -6 9 -11 14 -11 9 0 -4 -17 3 -37 16 -21 13
-58 35 -83 49 -25 14 -99 57 -165 95 -66 38 -131 76 -145 84 -14 8 -27 16 -30
19 -3 3 -16 11 -30 18 -14 7 -52 28 -85 47 -33 20 -68 38 -77 41 -10 4 -18 10
-18 14 0 4 -8 10 -17 13 -10 4 -40 20 -68 37 -27 17 -69 40 -92 52 -24 12 -43
26 -43 30 0 4 -5 8 -10 8 -9 0 -73 35 -130 70 -25 16 -193 113 -231 135 -20
11 -56 31 -80 44 -24 13 -46 27 -49 31 -3 3 -25 17 -50 29 -59 30 -104 55
-110 61 -7 8 -130 80 -136 80 -3 0 -28 15 -57 33 -29 18 -65 40 -82 49 -42 22
-75 40 -110 62 -70 44 -80 50 -88 51 -4 0 -11 6 -16 13 -5 8 -10 12 -12 11 -6
-5 -173 92 -181 105 -4 6 -8 7 -8 3 0 -5 -13 1 -29 12 -16 12 -34 21 -40 21
-6 0 -11 5 -11 10 0 6 -5 10 -11 10 -7 0 -39 17 -73 38 -34 21 -72 43 -86 50
-14 7 -43 23 -65 37 -22 14 -51 31 -65 37 -14 7 -32 17 -40 24 -8 6 -39 24
-68 39 -29 15 -55 31 -58 37 -3 5 -23 16 -45 25 -21 8 -39 18 -39 22 0 13 -40
9 -55 -5z m27 -1166 c14 -13 25 -20 97 -60 20 -11 48 -29 63 -39 14 -11 30
-19 35 -19 5 0 19 -9 31 -21 12 -11 26 -18 31 -15 5 3 11 -1 15 -9 3 -8 12
-15 21 -15 8 0 15 -4 15 -10 0 -5 4 -10 10 -10 5 0 39 -18 75 -40 36 -22 70
-40 75 -40 6 0 10 -4 10 -10 0 -5 7 -10 15 -10 8 0 15 -5 15 -11 0 -5 5 -7 10
-4 6 3 10 2 10 -4 0 -5 10 -13 23 -17 12 -4 24 -10 27 -14 4 -6 77 -49 165
-98 17 -9 32 -20 35 -23 3 -4 15 -9 28 -13 12 -4 22 -11 22 -14 0 -4 17 -16
38 -27 20 -11 39 -22 42 -25 3 -3 19 -12 35 -20 17 -8 32 -17 35 -20 12 -12
112 -70 121 -70 5 0 9 -4 9 -10 0 -5 4 -10 9 -10 9 0 181 -99 191 -110 3 -3
16 -11 30 -18 29 -14 63 -35 70 -43 3 -3 12 -8 20 -12 8 -4 33 -18 55 -32 22
-14 51 -30 65 -37 14 -7 27 -15 30 -18 9 -10 65 -41 83 -47 9 -3 17 -9 17 -14
0 -5 5 -9 12 -9 6 0 19 -6 27 -14 9 -7 36 -24 61 -37 25 -13 47 -27 50 -30 3
-3 21 -14 40 -25 19 -10 37 -21 40 -25 3 -3 22 -13 43 -23 l39 -18 -33 -24
c-18 -13 -37 -24 -42 -24 -4 0 -24 -12 -43 -26 -19 -15 -34 -23 -34 -19 0 3
-12 -3 -26 -14 -15 -12 -33 -21 -40 -21 -8 0 -14 -4 -14 -10 0 -5 -5 -10 -11
-10 -6 0 -24 -9 -40 -21 -16 -11 -29 -17 -29 -12 0 4 -4 3 -8 -3 -4 -5 -38
-28 -77 -49 -38 -22 -78 -44 -87 -50 -9 -5 -29 -17 -45 -26 -15 -9 -46 -26
-68 -39 -88 -51 -122 -70 -170 -96 -27 -15 -53 -32 -57 -38 -4 -6 -8 -7 -8 -2
0 5 -8 3 -17 -5 -10 -8 -36 -24 -58 -34 -22 -11 -42 -23 -45 -26 -8 -9 -171
-99 -180 -99 -5 0 -10 -4 -12 -8 -4 -9 -257 -152 -270 -152 -4 0 -8 -4 -8 -8
0 -5 -28 -23 -62 -41 -35 -18 -81 -43 -103 -55 -284 -163 -379 -216 -386 -216
-5 0 -9 -4 -9 -9 0 -12 -32 -24 -39 -14 -3 4 -12 9 -18 10 -7 2 -67 37 -134
78 -66 41 -122 75 -124 75 -3 0 -40 23 -83 50 -43 28 -84 50 -90 50 -7 0 -12
3 -12 8 0 4 -21 18 -47 32 -27 13 -50 27 -53 31 -3 4 -21 16 -41 27 -76 42
-84 47 -89 52 -5 5 -13 10 -89 52 -20 11 -38 23 -41 27 -3 3 -18 13 -35 21
-16 8 -32 17 -35 20 -6 6 -19 14 -105 65 -33 19 -82 49 -110 65 -27 17 -60 36
-72 42 -13 6 -23 15 -23 20 0 4 -7 8 -15 8 -9 0 -21 5 -28 10 -31 27 -90 60
-104 60 -9 0 -14 3 -10 6 6 6 -81 59 -115 70 -10 4 -18 10 -18 14 0 5 -21 19
-47 32 -27 13 -49 26 -51 31 -2 4 -10 7 -18 7 -8 0 -14 4 -14 9 0 5 -18 16
-40 25 -22 9 -40 21 -40 27 0 5 -4 8 -9 5 -5 -4 -11 -2 -13 2 -1 5 -32 25 -68
46 -84 48 -104 60 -110 67 -3 3 -13 8 -22 12 -10 3 -18 10 -18 16 0 9 432 273
457 279 7 2 13 7 13 10 0 4 21 19 48 32 26 14 49 28 50 33 2 4 9 7 16 7 7 0
22 9 34 20 12 12 22 18 22 15 0 -3 19 7 43 23 23 16 49 32 57 35 8 4 51 30 95
57 44 28 95 58 113 66 17 9 32 20 32 25 0 5 6 9 14 9 8 0 21 6 28 13 7 7 28
20 46 28 17 7 32 17 32 20 0 3 18 14 40 24 22 10 40 22 40 27 0 5 5 6 10 3 6
-3 10 -2 10 3 0 5 14 15 31 22 17 7 36 18 42 24 7 6 32 22 57 35 25 14 51 31
58 38 7 7 20 13 28 13 8 0 14 5 14 10 0 6 4 10 9 10 4 0 48 25 97 55 49 30 96
59 104 63 16 8 165 97 208 124 43 27 96 57 104 58 4 0 13 -6 20 -12z"/>
<path d="M10910 9033 c-25 -14 -65 -37 -90 -51 -25 -13 -53 -31 -62 -40 -10
-8 -18 -11 -18 -7 0 5 -11 -2 -25 -15 -14 -13 -25 -20 -25 -15 0 4 -9 0 -20
-10 -11 -10 -20 -15 -20 -11 0 4 -6 2 -12 -4 -25 -20 -84 -56 -116 -71 -17 -7
-32 -17 -32 -21 0 -5 -7 -8 -15 -8 -8 0 -15 -4 -15 -10 0 -6 -3 -9 -7 -8 -13
3 -63 -24 -63 -34 0 -4 -9 -8 -20 -8 -11 0 -20 -4 -20 -8 0 -4 -19 -18 -42
-30 -50 -27 -109 -60 -158 -91 -19 -12 -43 -24 -52 -27 -10 -4 -18 -10 -18
-15 0 -5 -7 -9 -14 -9 -8 0 -34 -13 -58 -29 -24 -16 -61 -39 -83 -51 -22 -12
-53 -30 -70 -41 -16 -10 -42 -24 -57 -30 -16 -6 -28 -14 -28 -19 0 -7 -29 -18
-47 -18 -3 0 -10 -7 -15 -16 -5 -9 -15 -16 -22 -16 -7 0 -23 -9 -36 -20 -12
-11 -26 -17 -30 -15 -5 3 -10 2 -12 -3 -4 -11 -101 -67 -110 -64 -5 1 -8 -2
-8 -6 0 -5 -19 -18 -42 -31 -57 -29 -82 -44 -89 -54 -3 -5 -10 -9 -15 -9 -17
-1 -54 -21 -54 -30 0 -4 -6 -8 -13 -8 -7 0 -29 -11 -48 -25 -20 -13 -39 -21
-43 -18 -3 4 -6 2 -6 -4 0 -6 -17 -20 -37 -30 -95 -49 -123 -66 -123 -76 0 -6
-3 -8 -6 -4 -3 3 -24 -5 -45 -19 -21 -13 -43 -24 -49 -24 -5 0 -10 -4 -10 -8
0 -5 -18 -16 -40 -26 -22 -10 -46 -23 -53 -31 -8 -7 -33 -23 -58 -34 -24 -12
-64 -35 -89 -51 -25 -15 -51 -29 -57 -29 -7 -1 -13 -5 -13 -11 0 -5 -6 -10
-14 -10 -7 0 -19 -7 -26 -15 -7 -9 -15 -13 -18 -11 -2 3 -11 -2 -19 -10 -8 -8
-18 -12 -23 -9 -4 3 -10 -2 -14 -10 -3 -8 -12 -15 -19 -15 -8 0 -25 -8 -38
-18 -13 -11 -49 -32 -79 -49 -53 -29 -137 -78 -190 -112 -14 -8 -27 -16 -30
-16 -6 -1 -26 -13 -193 -112 -67 -40 -128 -73 -134 -73 -7 0 -13 -4 -13 -10 0
-5 -11 -12 -24 -16 -14 -3 -27 -12 -30 -20 -3 -8 -14 -14 -24 -14 -11 0 -25
-7 -32 -15 -7 -8 -19 -15 -26 -15 -8 0 -14 -4 -14 -10 0 -5 -5 -10 -11 -10 -5
0 -75 -38 -154 -85 -79 -47 -148 -85 -154 -85 -6 0 -11 -4 -11 -9 0 -5 -10
-13 -22 -17 -13 -4 -25 -9 -28 -13 -5 -7 -25 -18 -110 -64 -30 -17 -57 -33
-60 -37 -3 -4 -31 -19 -62 -35 -32 -16 -58 -33 -58 -37 0 -4 -5 -8 -10 -8 -6
0 -40 -18 -76 -40 -36 -22 -68 -40 -70 -40 -2 0 -37 -20 -77 -45 -41 -25 -80
-45 -86 -45 -6 0 -11 -4 -11 -9 0 -5 -8 -11 -17 -14 -18 -6 -73 -37 -83 -47
-3 -3 -25 -16 -50 -29 -25 -13 -49 -27 -53 -31 -8 -7 -30 4 -145 73 -26 15
-58 33 -72 40 -14 6 -28 16 -32 22 -4 5 -8 6 -8 2 0 -4 -10 1 -22 12 -11 11
-24 18 -28 16 -4 -2 -16 4 -26 13 -10 10 -35 25 -54 35 -19 9 -57 31 -85 47
-27 16 -69 39 -92 52 -24 12 -43 25 -43 30 0 4 -9 8 -19 8 -11 0 -21 4 -23 8
-1 4 -57 38 -123 76 -66 38 -136 78 -155 89 -19 11 -48 27 -65 35 -16 9 -32
18 -35 21 -4 5 -35 23 -95 55 -11 6 -22 13 -25 17 -3 3 -21 13 -40 22 -19 10
-48 26 -65 37 -16 10 -49 28 -72 40 -24 12 -43 26 -43 31 0 6 -4 8 -9 5 -5 -3
-19 2 -32 12 -13 9 -35 23 -48 30 -13 8 -38 22 -55 31 -17 10 -90 52 -163 94
-72 43 -136 77 -142 77 -6 0 -11 3 -11 8 0 4 -26 21 -58 37 -31 17 -58 33 -60
38 -2 4 -8 7 -14 7 -5 0 -29 13 -52 30 -24 16 -46 26 -50 23 -3 -4 -6 -1 -6 6
0 7 -4 9 -10 6 -5 -3 -10 -1 -10 4 0 6 -6 11 -14 11 -8 0 -16 3 -18 8 -3 7
-66 43 -115 66 -13 6 -23 14 -23 19 0 4 -5 7 -10 7 -6 0 -40 18 -76 40 -36 22
-70 40 -75 40 -5 0 -9 3 -9 8 0 4 -17 15 -37 24 -38 18 -94 49 -103 58 -3 3
-18 12 -35 20 -16 7 -45 25 -63 38 -17 12 -32 20 -32 17 0 -4 -13 3 -29 14
-16 12 -34 21 -40 21 -6 0 -11 5 -11 10 0 6 -6 10 -14 10 -7 0 -19 7 -26 15
-7 8 -16 12 -21 9 -5 -3 -9 0 -9 5 0 6 -4 11 -9 11 -8 0 -126 66 -231 130 -19
11 -38 21 -42 20 -5 0 -19 10 -32 21 -13 12 -28 21 -33 21 -4 1 -25 12 -45 24
-21 13 -42 24 -48 24 -5 0 -10 5 -10 10 0 6 -6 10 -14 10 -7 0 -19 7 -26 15
-6 8 -15 14 -18 13 -4 -1 -26 10 -50 25 -24 15 -54 32 -67 37 -14 5 -25 15
-25 21 0 7 -3 10 -6 6 -3 -3 -24 5 -45 19 -21 13 -43 24 -49 24 -5 0 -10 5
-10 10 0 6 -5 10 -10 10 -6 0 -40 18 -76 40 -36 22 -70 40 -75 40 -5 0 -9 5
-9 11 0 5 -4 8 -9 4 -5 -3 -16 0 -23 7 -14 13 -27 21 -107 66 -25 14 -63 36
-83 49 -21 12 -42 23 -48 23 -5 0 -10 5 -10 10 0 6 -5 10 -10 10 -6 0 -28 11
-49 24 -21 14 -42 22 -45 19 -3 -4 -6 -2 -6 3 0 5 -21 21 -47 34 -27 14 -59
33 -72 43 -13 9 -30 17 -38 17 -9 0 -12 -7 -9 -17 3 -10 8 -34 12 -53 3 -19 7
-39 8 -45 2 -5 6 -30 10 -55 11 -66 14 -85 16 -85 1 0 3 -9 5 -20 10 -66 20
-123 35 -195 6 -30 13 -64 14 -75 2 -11 8 -45 14 -75 10 -49 14 -71 27 -145 2
-11 4 -20 5 -20 1 0 3 -13 5 -30 1 -16 3 -30 4 -30 2 0 4 -11 7 -25 3 -22 31
-172 49 -265 3 -16 7 -39 9 -50 2 -11 7 -38 12 -60 4 -22 7 -46 6 -52 -2 -7 1
-13 5 -13 5 0 8 -12 7 -27 0 -15 5 -47 13 -71 7 -25 10 -48 7 -53 -3 -5 -1
-17 4 -26 6 -10 13 -38 16 -63 4 -25 8 -54 10 -65 3 -11 7 -36 10 -55 4 -19 9
-42 11 -50 6 -22 17 -92 18 -112 1 -10 5 -18 10 -18 4 0 6 -4 2 -9 -3 -5 0
-31 6 -58 6 -26 13 -59 14 -73 2 -14 4 -25 5 -25 2 0 12 -51 26 -140 6 -36 11
-62 19 -95 3 -14 7 -38 9 -55 2 -16 7 -41 10 -55 3 -14 8 -36 10 -50 3 -14 7
-36 10 -50 3 -13 8 -42 11 -65 4 -22 10 -55 15 -74 5 -19 7 -38 4 -42 -2 -4 0
-10 5 -13 5 -4 8 -17 6 -31 -1 -14 1 -25 5 -25 4 0 7 -6 7 -12 -1 -7 5 -47 12
-88 8 -41 15 -84 17 -95 1 -11 7 -32 13 -47 8 -20 7 -28 0 -28 -8 0 -8 -4 -1
-12 9 -12 16 -41 26 -118 2 -14 5 -27 7 -30 2 -6 2 -5 14 -75 5 -27 10 -52 10
-55 5 -19 19 -87 20 -95 3 -33 17 -112 22 -125 3 -8 7 -31 9 -50 2 -19 7 -46
10 -60 4 -14 9 -34 11 -45 2 -11 5 -31 7 -45 3 -14 7 -34 9 -45 2 -11 7 -36
10 -55 4 -19 9 -51 13 -70 4 -19 8 -44 9 -55 2 -11 4 -20 5 -20 1 0 3 -10 6
-22 2 -13 6 -33 8 -45 3 -13 5 -23 6 -23 1 0 3 -16 5 -35 4 -38 8 -57 31 -165
4 -16 8 -41 9 -55 1 -14 5 -34 8 -45 4 -11 9 -36 11 -55 3 -20 7 -47 10 -60 3
-14 8 -38 11 -55 3 -16 8 -39 10 -50 2 -11 6 -31 9 -45 3 -13 8 -42 12 -64 3
-22 7 -43 9 -46 3 -5 16 -85 21 -130 1 -14 3 -26 4 -27 2 -2 4 -7 5 -13 1 -5
3 -11 4 -12 1 -2 4 -18 7 -37 5 -37 5 -38 29 -156 9 -44 18 -93 20 -110 1 -16
4 -30 5 -30 2 0 3 -6 19 -100 19 -105 22 -119 37 -192 3 -16 7 -39 9 -53 2
-14 6 -36 10 -50 4 -14 8 -36 9 -50 2 -14 7 -41 11 -60 4 -19 10 -45 11 -57 2
-13 6 -35 9 -50 3 -16 7 -35 9 -43 1 -8 6 -34 10 -58 7 -37 13 -45 47 -60 21
-9 39 -20 39 -24 0 -5 4 -8 9 -8 5 0 40 -17 78 -38 37 -22 93 -52 123 -69 30
-17 73 -40 95 -53 22 -12 58 -32 80 -43 22 -12 42 -24 45 -27 3 -3 35 -21 72
-40 37 -19 68 -39 68 -43 0 -5 4 -6 9 -2 5 3 15 0 23 -7 7 -7 36 -24 63 -38
28 -13 52 -27 55 -30 3 -3 24 -15 48 -27 23 -13 61 -33 85 -45 23 -13 44 -26
47 -29 3 -4 15 -9 27 -13 13 -4 29 -13 35 -19 7 -7 29 -20 48 -29 19 -10 62
-33 95 -52 33 -19 85 -48 115 -64 30 -16 73 -39 95 -52 22 -12 59 -33 82 -46
24 -13 64 -36 90 -51 27 -14 66 -35 88 -47 22 -12 42 -23 45 -26 3 -3 19 -12
35 -20 17 -8 42 -23 57 -33 16 -10 28 -15 28 -10 0 4 4 3 8 -3 4 -6 21 -17 37
-26 62 -31 120 -63 125 -68 6 -6 39 -25 93 -53 23 -11 45 -25 48 -30 3 -4 13
-9 21 -11 8 -1 27 -9 41 -19 15 -9 31 -17 37 -17 5 0 10 -4 10 -8 0 -5 16 -14
35 -22 19 -8 35 -18 35 -24 0 -5 3 -7 6 -4 3 3 29 -8 59 -26 78 -46 109 -62
116 -62 4 1 15 -6 25 -15 11 -9 39 -26 64 -38 25 -13 54 -28 65 -35 43 -26 85
-46 91 -45 4 0 10 -3 13 -8 3 -5 26 -20 51 -33 25 -14 53 -31 63 -39 9 -8 17
-11 17 -7 0 4 17 -5 37 -19 21 -14 42 -25 48 -25 6 0 22 -10 35 -22 14 -13 26
-22 27 -21 4 3 37 -9 43 -16 3 -3 16 -12 29 -19 13 -8 39 -22 58 -33 40 -22
61 -24 82 -5 9 7 36 24 61 37 25 13 59 33 75 44 43 28 65 42 105 63 19 11 99
58 178 106 79 47 147 86 151 86 4 0 16 8 27 17 10 10 33 25 49 33 17 8 36 21
43 28 7 6 17 12 22 12 5 0 29 14 53 30 25 17 50 30 56 30 6 0 11 5 11 10 0 6
5 10 10 10 6 0 36 16 66 35 30 19 59 35 64 35 6 0 10 5 10 10 0 6 3 9 8 8 4
-1 18 5 32 13 91 59 215 132 236 139 13 5 24 14 24 20 0 6 3 9 8 7 4 -3 30 10
57 29 28 18 56 34 63 34 6 0 12 4 12 9 0 5 10 13 23 17 12 4 24 10 27 14 3 3
29 19 58 35 28 15 52 32 52 37 0 4 3 7 8 6 4 -2 96 50 204 115 108 64 201 117
206 117 6 0 12 7 16 15 3 8 14 15 25 15 11 0 21 4 23 8 2 5 48 35 103 67 55
32 102 61 105 65 3 4 16 11 30 15 14 4 27 11 30 15 6 9 54 38 118 71 23 13 42
26 42 29 0 4 20 15 45 26 25 10 45 21 45 25 0 3 18 14 40 24 22 10 40 22 40
27 0 5 5 6 10 3 6 -3 10 -1 10 4 0 6 7 11 15 11 8 0 15 5 15 10 0 6 4 10 10
10 13 0 113 61 122 74 4 6 8 7 8 3 0 -4 17 4 37 18 21 14 43 25 49 25 7 0 14
4 16 8 2 7 134 89 203 126 11 6 36 22 55 36 19 14 36 23 37 20 1 -3 11 2 21
11 10 9 32 22 48 31 54 27 79 43 87 56 4 6 15 12 23 12 9 0 35 14 59 30 24 17
48 30 53 30 18 0 37 33 50 84 18 72 20 81 23 81 1 0 3 11 4 25 1 14 7 38 14
53 6 16 11 34 11 42 0 8 5 26 11 42 7 15 13 37 14 48 1 11 14 65 29 120 15 55
29 110 32 122 2 12 9 34 14 48 5 14 7 25 4 25 -2 0 0 9 6 19 5 11 13 37 16 58
3 21 8 41 11 45 4 7 8 22 19 75 2 12 9 34 14 48 5 14 7 25 5 25 -2 0 0 12 6
28 6 15 12 34 15 42 2 8 8 33 14 55 6 22 13 51 16 65 2 14 7 32 10 40 3 8 8
25 10 38 l4 22 -50 -27 c-27 -15 -50 -31 -50 -36 0 -4 -4 -5 -10 -2 -5 3 -10
1 -10 -5 0 -6 -4 -9 -9 -6 -5 3 -14 -1 -21 -9 -7 -8 -17 -15 -22 -15 -5 0 -25
-11 -45 -25 -20 -13 -40 -22 -45 -19 -4 3 -8 1 -8 -4 0 -6 -18 -19 -40 -31
-22 -11 -59 -33 -82 -48 -24 -15 -45 -28 -48 -28 -8 -1 -55 -27 -60 -34 -3 -3
-31 -19 -62 -36 -32 -16 -58 -33 -58 -37 0 -5 -4 -8 -9 -8 -6 0 -38 -17 -73
-37 -115 -68 -143 -84 -160 -90 -10 -3 -18 -9 -18 -13 0 -4 -8 -10 -17 -13
-10 -4 -36 -17 -58 -31 -22 -14 -62 -37 -90 -52 -27 -14 -52 -30 -55 -33 -3
-4 -22 -15 -42 -24 -21 -10 -38 -22 -38 -28 0 -6 -4 -8 -9 -5 -5 3 -19 -2 -32
-12 -13 -10 -42 -27 -64 -37 -22 -11 -42 -22 -45 -26 -10 -10 -321 -189 -331
-189 -5 0 -9 -4 -9 -9 0 -5 -13 -14 -30 -20 -16 -5 -30 -15 -30 -20 0 -6 -3
-10 -7 -9 -8 3 -143 -70 -153 -81 -3 -4 -23 -15 -45 -26 -22 -11 -42 -23 -45
-26 -3 -4 -24 -16 -47 -28 -23 -11 -45 -25 -48 -31 -4 -6 -11 -8 -16 -5 -5 4
-9 2 -9 -4 0 -5 -10 -13 -22 -17 -12 -3 -28 -13 -36 -20 -7 -8 -18 -12 -23 -9
-5 4 -9 2 -9 -2 0 -5 -30 -26 -67 -47 -38 -20 -113 -64 -168 -97 -55 -33 -111
-65 -125 -71 -14 -7 -27 -15 -30 -18 -3 -3 -25 -16 -50 -29 -25 -13 -56 -33
-69 -43 -13 -10 -28 -18 -32 -18 -5 0 -33 -16 -63 -35 -30 -19 -60 -35 -66
-35 -5 0 -10 -3 -10 -7 0 -5 -19 -17 -43 -28 -23 -11 -44 -23 -47 -26 -3 -3
-21 -14 -40 -24 -19 -10 -37 -21 -40 -24 -3 -3 -23 -15 -45 -26 -22 -11 -42
-22 -45 -26 -10 -11 -145 -83 -148 -79 -2 3 -8 -3 -13 -12 -6 -10 -15 -18 -20
-18 -6 0 -23 -9 -39 -20 -15 -11 -30 -17 -34 -13 -3 3 -6 1 -6 -5 0 -7 -7 -12
-15 -12 -8 0 -15 -4 -15 -10 0 -5 -4 -10 -9 -10 -5 0 -55 -27 -111 -60 -56
-33 -104 -60 -107 -60 -2 0 -23 -13 -46 -28 -23 -16 -55 -36 -72 -44 -64 -33
-130 -72 -137 -82 -4 -6 -10 -7 -14 -3 -4 4 -7 177 -7 384 0 427 8 385 -84
440 -24 14 -43 30 -43 36 0 6 -3 8 -6 4 -4 -3 -21 5 -39 18 -17 14 -37 25 -43
25 -7 0 -12 4 -12 8 0 5 -12 15 -27 23 -16 8 -30 16 -33 20 -11 12 -102 69
-110 69 -4 0 -10 3 -12 8 -4 10 -65 52 -76 52 -5 0 -17 9 -27 20 -10 11 -22
20 -27 20 -11 0 -72 42 -76 53 -2 4 -10 7 -18 7 -8 0 -14 5 -14 10 0 6 -7 10
-15 10 -8 0 -15 4 -15 8 0 10 -50 37 -62 34 -5 -1 -8 2 -8 7 0 5 -15 18 -32
30 -142 90 -193 125 -196 133 -2 4 -8 6 -13 2 -5 -3 -9 0 -9 5 0 6 -7 11 -15
11 -8 0 -15 5 -15 11 0 5 -4 8 -9 5 -5 -3 -12 1 -15 10 -3 8 -10 12 -16 9 -5
-3 -10 -2 -10 2 0 9 -54 44 -67 43 -9 0 -11 -110 -3 -110 3 0 6 -24 6 -53 4
-133 9 -217 14 -217 3 0 6 -28 7 -63 1 -34 4 -93 7 -132 4 -38 8 -97 10 -130
2 -33 7 -86 10 -119 l6 -59 -22 17 c-13 9 -34 21 -48 27 -13 6 -27 13 -30 17
-7 10 -62 42 -82 49 -10 3 -18 9 -18 14 0 5 -6 9 -14 9 -8 0 -16 3 -18 8 -4 9
-57 41 -81 49 -9 3 -17 9 -17 14 0 5 -6 9 -13 9 -7 0 -22 8 -33 18 -11 9 -26
18 -34 20 -8 2 -16 8 -18 13 -2 5 -10 9 -18 9 -8 0 -14 4 -14 9 0 5 -11 12
-25 15 -14 4 -25 11 -25 17 0 6 -5 7 -10 4 -6 -3 -10 -2 -10 3 0 4 -15 16 -33
26 -40 21 -76 43 -216 129 -60 37 -113 67 -116 67 -4 0 -13 6 -20 13 -35 31
-45 37 -60 37 -8 0 -15 3 -15 8 0 4 -20 18 -45 31 -25 13 -45 28 -45 32 0 5
-9 9 -20 9 -11 0 -20 3 -20 8 0 4 -9 12 -19 17 -37 19 -181 106 -181 109 0 2
-5 28 -11 57 -5 30 -12 70 -15 89 -2 19 -6 46 -9 60 -3 14 -8 37 -10 53 -3 15
-7 39 -10 55 -3 15 -8 43 -10 62 -3 19 -8 44 -10 56 -3 12 -7 39 -10 60 -4 21
-8 49 -11 62 -8 44 -12 68 -20 117 -4 28 -8 55 -10 60 -1 6 -4 26 -8 45 -3 19
-8 46 -11 60 -5 25 -11 59 -20 128 -3 20 -8 48 -11 62 -3 14 -7 37 -10 53 -2
15 -6 39 -9 55 -8 37 -15 81 -19 117 -2 17 -6 41 -9 55 -4 14 -9 40 -12 58 -7
45 -15 92 -21 122 -3 14 -7 36 -9 50 -2 14 -6 39 -9 55 -12 65 -19 111 -19
123 0 6 -3 12 -6 12 -3 0 -7 15 -8 33 -1 17 -4 43 -6 57 -10 66 -20 127 -24
145 -4 22 -10 50 -19 105 -10 58 -12 73 -18 114 -4 21 -8 41 -10 45 -2 3 -7
31 -10 62 -4 30 -10 68 -14 84 -4 17 -7 40 -6 53 1 12 -2 22 -6 22 -4 0 -7 6
-7 13 -2 31 -12 98 -23 157 -7 36 -14 76 -15 90 -2 14 -4 25 -5 25 -1 0 -3 9
-4 20 -6 38 -16 101 -21 125 -3 14 -7 41 -10 60 -2 19 -4 35 -5 35 -2 0 -5 18
-14 75 -3 19 -8 49 -11 65 -2 17 -9 57 -15 89 -5 33 -8 62 -5 64 2 2 19 -5 37
-16 18 -11 58 -33 88 -50 30 -16 78 -42 105 -57 28 -16 101 -57 164 -92 62
-34 115 -63 118 -63 2 0 11 -7 19 -15 9 -8 24 -15 35 -15 10 0 19 -3 19 -7 0
-5 35 -26 78 -48 42 -22 83 -46 90 -52 7 -7 18 -13 24 -13 6 0 19 -7 29 -16 9
-8 24 -16 32 -18 8 -1 21 -7 28 -12 8 -6 39 -24 69 -40 30 -16 57 -31 60 -35
3 -3 26 -16 52 -28 27 -13 50 -27 54 -32 3 -5 10 -7 15 -4 5 4 9 1 9 -4 0 -6
7 -11 15 -11 9 0 18 -6 21 -13 2 -7 14 -14 26 -14 12 -1 24 -6 27 -10 5 -7 25
-18 116 -67 11 -6 22 -13 25 -16 3 -3 30 -18 60 -34 50 -26 109 -58 195 -106
17 -9 57 -32 90 -50 33 -18 62 -37 63 -42 2 -4 7 -6 12 -3 5 3 21 -5 35 -18
22 -19 28 -33 31 -82 3 -33 7 -71 9 -85 3 -14 8 -59 11 -100 3 -41 8 -78 10
-82 3 -4 7 -35 10 -70 11 -137 24 -231 31 -224 6 6 106 -44 115 -58 4 -6 8 -8
8 -4 0 5 44 -15 98 -42 54 -28 104 -50 110 -50 7 0 12 -3 12 -8 0 -4 15 -13
33 -21 37 -15 105 -48 127 -61 44 -25 234 -114 236 -110 1 3 10 -2 20 -11 19
-16 113 -63 126 -64 3 0 10 -4 15 -8 4 -5 24 -16 43 -24 19 -9 37 -17 40 -18
3 -2 15 -6 28 -10 12 -4 22 -12 22 -17 0 -5 4 -7 9 -4 4 3 8 115 9 248 0 134
1 251 1 260 1 9 13 23 29 31 59 31 97 53 109 64 7 6 22 15 33 18 11 3 20 11
20 16 0 5 9 9 20 9 11 0 20 4 20 10 0 5 11 12 24 16 14 3 27 12 30 21 3 8 10
12 15 9 5 -4 16 -1 23 6 17 16 48 36 68 45 8 3 27 14 41 24 14 10 29 16 33 12
3 -3 6 -2 6 4 0 5 24 23 53 38 28 16 54 31 57 34 3 3 25 17 50 30 25 14 47 27
50 30 5 6 51 32 113 64 20 10 37 23 37 29 0 5 5 6 10 3 6 -3 10 -3 10 2 0 4
13 14 29 21 16 7 57 31 90 52 34 22 61 36 61 32 0 -4 4 -2 8 3 9 13 130 85
143 85 5 0 9 4 9 10 0 5 11 12 25 16 14 3 25 9 25 13 0 3 29 22 65 40 36 19
65 39 65 44 0 4 4 6 9 2 5 -3 13 0 16 5 4 6 17 15 28 21 12 5 31 15 42 21 33
22 99 62 120 74 11 6 36 21 55 32 19 12 54 32 78 44 23 12 42 26 42 30 0 4 5
8 10 8 6 0 52 25 102 55 50 30 95 55 100 55 4 0 8 5 8 10 0 6 9 10 20 10 11 0
20 4 20 9 0 5 15 16 33 25 17 9 50 28 72 42 22 13 47 27 55 31 8 3 33 18 55
32 68 44 78 50 130 77 28 15 52 30 53 35 2 5 8 9 13 9 5 0 32 15 61 33 29 19
60 37 68 40 8 4 27 15 42 25 80 51 239 142 248 142 5 0 10 4 10 8 0 5 15 16
33 25 45 23 104 58 154 90 24 15 47 27 53 27 5 0 10 4 10 8 0 5 16 14 35 22
19 8 35 16 35 20 0 3 24 18 53 34 28 15 72 40 97 57 25 16 57 34 73 40 15 6
27 15 27 20 0 5 4 9 9 9 10 0 132 70 141 80 3 4 12 9 20 13 8 4 38 20 65 36
28 17 68 40 90 52 22 12 43 27 47 33 4 6 8 7 8 2 0 -5 8 -2 18 6 23 20 122 79
122 73 0 -3 9 4 20 15 12 12 25 18 30 15 6 -4 10 -2 10 3 0 5 25 22 55 38 30
16 55 32 55 37 0 4 5 7 10 7 6 0 28 11 49 24 29 19 40 34 46 63 10 44 12 52
15 56 1 1 3 9 5 17 1 8 8 35 15 60 7 25 12 46 12 47 -1 2 10 42 24 90 14 49
27 97 29 108 7 38 14 65 19 73 3 5 7 19 10 33 2 13 9 44 16 69 6 25 13 54 15
65 2 11 8 32 14 48 6 15 8 27 5 27 -4 0 0 7 7 17 8 9 13 19 11 22 -3 7 18 102
27 116 3 6 6 15 6 20 2 37 18 95 26 95 6 0 8 4 5 8 -3 4 0 28 6 53 14 60 14
62 21 79 4 8 8 24 10 35 1 11 6 26 10 33 12 18 -3 14 -53 -15z"/>
<path d="M10435 6681 c-16 -9 -31 -19 -33 -23 -2 -5 -10 -8 -18 -8 -8 0 -23
-9 -34 -20 -11 -11 -20 -18 -20 -15 0 3 -18 -6 -40 -20 -22 -14 -44 -25 -50
-25 -5 0 -10 -4 -10 -9 0 -5 -8 -11 -17 -14 -10 -4 -36 -18 -58 -32 -22 -13
-47 -28 -55 -32 -8 -3 -17 -9 -20 -12 -3 -4 -16 -12 -30 -18 -14 -7 -47 -26
-75 -43 -27 -17 -58 -33 -67 -37 -10 -3 -18 -9 -18 -14 0 -5 -9 -9 -20 -9 -11
0 -23 -7 -26 -15 -4 -8 -10 -15 -15 -15 -4 0 -49 -25 -100 -55 -50 -30 -95
-55 -99 -55 -4 0 -13 -7 -20 -15 -7 -8 -16 -12 -21 -9 -5 3 -12 -2 -15 -10 -3
-9 -10 -13 -15 -10 -5 3 -9 1 -9 -4 0 -5 -8 -12 -17 -15 -10 -4 -36 -17 -58
-30 -76 -46 -270 -160 -315 -185 -25 -14 -47 -28 -50 -31 -3 -4 -24 -15 -47
-26 -24 -11 -43 -23 -43 -26 0 -4 -13 -12 -30 -19 -16 -7 -30 -17 -30 -22 0
-5 -4 -7 -9 -4 -5 3 -19 -2 -32 -12 -35 -26 -149 -92 -160 -92 -5 0 -9 -4 -9
-10 0 -5 -5 -10 -10 -10 -6 0 -35 -15 -64 -34 -29 -18 -62 -37 -74 -40 -12 -4
-22 -11 -22 -15 0 -4 -16 -13 -35 -21 -19 -8 -35 -16 -35 -20 0 -3 -30 -21
-67 -40 -37 -19 -76 -43 -87 -52 -11 -10 -25 -18 -32 -18 -6 0 -17 -7 -24 -15
-7 -8 -16 -12 -21 -9 -5 3 -9 0 -9 -5 0 -6 -5 -11 -11 -11 -6 0 -17 -7 -26
-15 -8 -8 -19 -13 -24 -10 -5 4 -9 2 -9 -3 0 -5 -18 -17 -40 -28 -22 -10 -40
-23 -40 -27 0 -5 -4 -5 -10 -2 -5 3 -10 1 -10 -4 0 -6 -6 -11 -13 -11 -7 0
-23 -9 -35 -20 -12 -12 -22 -18 -22 -14 0 4 -9 -1 -20 -11 -11 -10 -20 -14
-20 -9 0 5 -4 4 -8 -1 -9 -13 -130 -85 -143 -85 -5 0 -9 -4 -9 -10 0 -5 -5
-10 -10 -10 -6 0 -36 -16 -66 -35 -30 -19 -57 -35 -60 -35 -3 0 -19 -9 -35
-21 -16 -11 -29 -18 -29 -14 0 3 -10 -3 -22 -15 -21 -19 -33 -24 -51 -21 -5 1
-6 -3 -2 -9 3 -5 2 -10 -3 -10 -6 0 -57 -27 -114 -61 -56 -33 -112 -65 -123
-72 -11 -6 -31 -18 -45 -26 -14 -8 -27 -14 -29 -12 -2 1 -7 -2 -10 -7 -6 -9
-48 -35 -123 -74 -21 -11 -38 -24 -38 -30 0 -5 -4 -7 -9 -4 -5 3 -14 0 -20 -8
-7 -8 -23 -17 -36 -20 -14 -4 -25 -11 -25 -17 0 -6 -4 -7 -10 -4 -5 3 -10 1
-10 -4 0 -6 -6 -11 -14 -11 -8 0 -18 -6 -23 -12 -4 -7 -8 -255 -8 -551 0 -553
0 -560 38 -522 8 8 17 11 21 8 3 -4 6 -1 6 6 0 7 5 9 10 6 6 -3 10 -2 10 2 0
5 29 25 65 44 36 18 65 38 65 42 0 5 5 5 10 2 6 -3 10 -1 10 4 0 6 15 18 33
26 40 19 90 48 97 56 3 3 10 8 15 10 23 9 160 94 163 101 2 5 7 8 12 8 9 0
132 71 140 80 3 4 29 20 57 36 29 16 53 33 53 37 0 5 4 6 9 3 4 -3 22 5 40 18
18 13 46 30 62 36 16 7 29 16 29 21 0 5 5 9 11 9 6 0 42 20 80 45 38 24 69 41
69 37 0 -4 4 -2 8 3 4 6 30 24 57 40 28 15 52 31 55 34 8 9 83 52 103 58 9 3
17 9 17 14 0 5 7 9 15 9 8 0 15 4 15 9 0 8 37 24 53 22 4 -1 7 3 7 8 0 8 157
104 163 99 1 -2 14 7 27 20 14 12 35 25 47 28 13 4 23 10 23 14 0 4 14 13 30
20 17 7 30 16 30 21 0 5 5 9 11 9 7 0 40 18 75 40 35 22 66 40 68 40 5 0 69
41 91 57 6 5 24 15 40 23 17 8 32 18 35 21 3 3 21 14 40 24 18 10 40 24 48 31
7 8 18 12 23 9 5 -4 9 -2 9 3 0 5 14 15 30 22 17 7 30 16 30 20 0 4 8 10 18
13 9 4 33 16 54 29 62 39 148 88 153 88 3 0 14 8 25 17 10 10 36 27 57 38 21
11 41 25 45 31 4 7 19 15 34 18 14 4 31 11 37 17 19 15 79 52 120 74 20 11 37
23 37 27 0 5 5 8 10 8 6 0 35 15 65 34 29 19 56 32 59 29 3 -4 6 -1 6 5 0 7 6
12 14 12 8 0 16 3 18 8 4 9 107 72 119 72 5 0 9 5 9 11 0 5 5 7 10 4 6 -3 10
-1 10 4 0 6 15 17 33 24 42 18 52 32 66 92 14 62 19 80 21 80 2 0 7 22 15 60
3 17 9 39 12 50 4 11 8 25 9 30 1 6 12 46 24 90 29 111 30 117 36 145 2 14 7
32 11 40 8 18 7 15 18 65 10 47 12 54 15 58 2 3 8 25 15 62 3 17 8 37 11 45 5
14 26 93 89 339 14 52 24 95 22 96 -1 1 -15 -5 -32 -14z"/>
</g>
</svg>
