<?xml version="1.0" encoding="UTF-8"?>
<svg xmlns="http://www.w3.org/2000/svg" xmlns:xlink="http://www.w3.org/1999/xlink" version="1.1" width="512" height="512" x="0" y="0" viewBox="0 0 682.667 682.667" style="enable-background:new 0 0 512 512" xml:space="preserve" class="">
  <g>
    <defs>
      <clipPath id="a">
        <path d="M0 512h512V0H0Z" fill="#ffffff" opacity="1" data-original="#000000" class=""/>
      </clipPath>
      <clipPath id="b">
        <path d="M0 512h512V0H0Z" fill="#ffffff" opacity="1" data-original="#000000" class=""/>
      </clipPath>
    </defs>
    <g clip-path="url(#a)" transform="matrix(1.33333 0 0 -1.33333 0 682.667)">
      <path d="M0 0v188.375L75 263.5h240V10.848" style="stroke-width:15;stroke-linecap:butt;stroke-linejoin:miter;stroke-miterlimit:10;stroke-dasharray:none;stroke-opacity:1" transform="translate(19.296 241)" fill="none" stroke="#ffffff" stroke-width="15" stroke-linecap="butt" stroke-linejoin="miter" stroke-miterlimit="10" stroke-dasharray="none" stroke-opacity="" data-original="#000000" opacity="1" class=""/>
      <path d="M0 0h-144.438v110.121" style="stroke-width:15;stroke-linecap:butt;stroke-linejoin:miter;stroke-miterlimit:10;stroke-dasharray:none;stroke-opacity:1" transform="translate(163.734 115.379)" fill="none" stroke="#ffffff" stroke-width="15" stroke-linecap="butt" stroke-linejoin="miter" stroke-miterlimit="10" stroke-dasharray="none" stroke-opacity="" data-original="#000000" opacity="1" class=""/>
    </g>
    <path d="M0 0h-65.316" style="stroke-width:15;stroke-linecap:butt;stroke-linejoin:miter;stroke-miterlimit:10;stroke-dasharray:none;stroke-opacity:1" transform="matrix(1.33333 0 0 -1.33333 418.066 528.828)" fill="none" stroke="#ffffff" stroke-width="15" stroke-linecap="butt" stroke-linejoin="miter" stroke-miterlimit="10" stroke-dasharray="none" stroke-opacity="" data-original="#000000" opacity="1" class=""/>
    <path d="M0 0v-73.521" style="stroke-width:15;stroke-linecap:butt;stroke-linejoin:miter;stroke-miterlimit:10;stroke-dasharray:none;stroke-opacity:1" transform="matrix(1.33333 0 0 -1.33333 445.728 377.626)" fill="none" stroke="#ffffff" stroke-width="15" stroke-linecap="butt" stroke-linejoin="miter" stroke-miterlimit="10" stroke-dasharray="none" stroke-opacity="" data-original="#000000" opacity="1" class=""/>
    <g clip-path="url(#b)" transform="matrix(1.33333 0 0 -1.33333 0 682.667)">
      <path d="M0 0c0 28.96 23.477 52.438 52.438 52.438 28.96 0 52.437-23.478 52.437-52.438S81.398-52.438 52.438-52.438C23.477-52.438 0-28.96 0 0Z" style="stroke-width:15;stroke-linecap:butt;stroke-linejoin:miter;stroke-miterlimit:10;stroke-dasharray:none;stroke-opacity:1" transform="translate(124.358 413.438)" fill="none" stroke="#ffffff" stroke-width="15" stroke-linecap="butt" stroke-linejoin="miter" stroke-miterlimit="10" stroke-dasharray="none" stroke-opacity="" data-original="#000000" opacity="1" class=""/>
      <path d="m0 0 14.76-20.435L45 15.405" style="stroke-width:15;stroke-linecap:butt;stroke-linejoin:miter;stroke-miterlimit:10;stroke-dasharray:none;stroke-opacity:1" transform="translate(154.296 417.952)" fill="none" stroke="#ffffff" stroke-width="15" stroke-linecap="butt" stroke-linejoin="miter" stroke-miterlimit="10" stroke-dasharray="none" stroke-opacity="" data-original="#000000" opacity="1" class=""/>
      <path d="M0 0h134.875" style="stroke-width:15;stroke-linecap:butt;stroke-linejoin:miter;stroke-miterlimit:10;stroke-dasharray:none;stroke-opacity:1" transform="translate(64.42 323)" fill="none" stroke="#ffffff" stroke-width="15" stroke-linecap="butt" stroke-linejoin="miter" stroke-miterlimit="10" stroke-dasharray="none" stroke-opacity="" data-original="#000000" opacity="1" class=""/>
      <path d="M0 0h134.875" style="stroke-width:15;stroke-linecap:butt;stroke-linejoin:miter;stroke-miterlimit:10;stroke-dasharray:none;stroke-opacity:1" transform="translate(64.42 285)" fill="none" stroke="#ffffff" stroke-width="15" stroke-linecap="butt" stroke-linejoin="miter" stroke-miterlimit="10" stroke-dasharray="none" stroke-opacity="" data-original="#000000" opacity="1" class=""/>
      <path d="M0 0h134.875" style="stroke-width:15;stroke-linecap:butt;stroke-linejoin:miter;stroke-miterlimit:10;stroke-dasharray:none;stroke-opacity:1" transform="translate(64.42 248.063)" fill="none" stroke="#ffffff" stroke-width="15" stroke-linecap="butt" stroke-linejoin="miter" stroke-miterlimit="10" stroke-dasharray="none" stroke-opacity="" data-original="#000000" opacity="1" class=""/>
      <path d="M0 0h74.875" style="stroke-width:15;stroke-linecap:butt;stroke-linejoin:miter;stroke-miterlimit:10;stroke-dasharray:none;stroke-opacity:1" transform="translate(64.42 210.97)" fill="none" stroke="#ffffff" stroke-width="15" stroke-linecap="butt" stroke-linejoin="miter" stroke-miterlimit="10" stroke-dasharray="none" stroke-opacity="" data-original="#000000" opacity="1" class=""/>
      <path d="M0 0h75v75.125" style="stroke-width:15;stroke-linecap:butt;stroke-linejoin:miter;stroke-miterlimit:10;stroke-dasharray:none;stroke-opacity:1" transform="translate(19.296 429.375)" fill="none" stroke="#ffffff" stroke-width="15" stroke-linecap="butt" stroke-linejoin="miter" stroke-miterlimit="10" stroke-dasharray="none" stroke-opacity="" data-original="#000000" opacity="1" class=""/>
      <path d="M0 0h-25v34.5h-164.875V0H-215v-35.375h25.125v-.125H-25v.125H0Z" style="stroke-width:15;stroke-linecap:butt;stroke-linejoin:miter;stroke-miterlimit:10;stroke-dasharray:none;stroke-opacity:1" transform="translate(314.296 43)" fill="none" stroke="#ffffff" stroke-width="15" stroke-linecap="butt" stroke-linejoin="miter" stroke-miterlimit="10" stroke-dasharray="none" stroke-opacity="" data-original="#000000" opacity="1" class=""/>
      <path d="M0 0h54.875" style="stroke-width:15;stroke-linecap:butt;stroke-linejoin:miter;stroke-miterlimit:10;stroke-dasharray:none;stroke-opacity:1" transform="translate(234.42 43)" fill="none" stroke="#ffffff" stroke-width="15" stroke-linecap="butt" stroke-linejoin="miter" stroke-miterlimit="10" stroke-dasharray="none" stroke-opacity="" data-original="#000000" opacity="1" class=""/>
      <path d="M0 0h94.875" style="stroke-width:15;stroke-linecap:butt;stroke-linejoin:miter;stroke-miterlimit:10;stroke-dasharray:none;stroke-opacity:1" transform="translate(124.42 43)" fill="none" stroke="#ffffff" stroke-width="15" stroke-linecap="butt" stroke-linejoin="miter" stroke-miterlimit="10" stroke-dasharray="none" stroke-opacity="" data-original="#000000" opacity="1" class=""/>
      <path d="m0 0-53.998 31.771 18.07 30.709 52.017-30.516" style="stroke-width:15;stroke-linecap:butt;stroke-linejoin:miter;stroke-miterlimit:10;stroke-dasharray:none;stroke-opacity:1" transform="translate(318.207 123.295)" fill="none" stroke="#ffffff" stroke-width="15" stroke-linecap="butt" stroke-linejoin="miter" stroke-miterlimit="10" stroke-dasharray="none" stroke-opacity="" data-original="#000000" opacity="1" class=""/>
      <path d="m0 0 35.411-20.835c13.003-7.651 17.342-24.394 9.691-37.397-7.651-13.003-24.394-17.341-37.397-9.691L-99.317-4.952l27.706 47.088 58.737-34.561" style="stroke-width:15;stroke-linecap:butt;stroke-linejoin:miter;stroke-miterlimit:10;stroke-dasharray:none;stroke-opacity:1" transform="translate(443.825 101.747)" fill="none" stroke="#ffffff" stroke-width="15" stroke-linecap="butt" stroke-linejoin="miter" stroke-miterlimit="10" stroke-dasharray="none" stroke-opacity="" data-original="#000000" opacity="1" class=""/>
      <path d="m0 0-61.194-104.002-61.808 36.367 61.194 104.003z" style="stroke-width:15;stroke-linecap:butt;stroke-linejoin:miter;stroke-miterlimit:10;stroke-dasharray:none;stroke-opacity:1" transform="translate(303.841 222.422)" fill="none" stroke="#ffffff" stroke-width="15" stroke-linecap="butt" stroke-linejoin="miter" stroke-miterlimit="10" stroke-dasharray="none" stroke-opacity="" data-original="#000000" opacity="1" class=""/>
      <path d="M0 0c-5.971-10.148-19.038-13.534-29.186-7.563l-65.903 38.776c-10.148 5.972-13.534 19.038-7.563 29.186 5.971 10.148 19.038 13.535 29.186 7.563l65.903-38.776C2.585 23.215 5.971 10.147 0 0Z" style="stroke-width:15;stroke-linecap:butt;stroke-linejoin:miter;stroke-miterlimit:10;stroke-dasharray:none;stroke-opacity:1" transform="translate(252.257 88.03)" fill="none" stroke="#ffffff" stroke-width="15" stroke-linecap="butt" stroke-linejoin="miter" stroke-miterlimit="10" stroke-dasharray="none" stroke-opacity="" data-original="#000000" opacity="1" class=""/>
      <path d="M0 0c-5.971-10.147-19.038-13.533-29.186-7.562l-65.902 38.776c-10.148 5.971-13.535 19.038-7.564 29.185h.001c5.97 10.149 19.037 13.535 29.185 7.564l65.903-38.776C2.585 23.215 5.971 10.148 0 0Z" style="stroke-width:15;stroke-linecap:butt;stroke-linejoin:miter;stroke-miterlimit:10;stroke-dasharray:none;stroke-opacity:1" transform="translate(335.074 228.78)" fill="none" stroke="#ffffff" stroke-width="15" stroke-linecap="butt" stroke-linejoin="miter" stroke-miterlimit="10" stroke-dasharray="none" stroke-opacity="" data-original="#000000" opacity="1" class=""/>
      <path d="m0 0-32.284-54.867c-5.056-8.593-16.121-11.461-24.714-6.404h-.001c-8.592 5.056-11.46 16.121-6.404 24.714l32.284 54.868c5.056 8.592 16.121 11.46 24.714 6.404C2.188 19.659 5.056 8.594 0 0Z" style="stroke-width:15;stroke-linecap:butt;stroke-linejoin:miter;stroke-miterlimit:10;stroke-dasharray:none;stroke-opacity:1" transform="translate(374.502 147.773)" fill="none" stroke="#ffffff" stroke-width="15" stroke-linecap="butt" stroke-linejoin="miter" stroke-miterlimit="10" stroke-dasharray="none" stroke-opacity="" data-original="#000000" opacity="1" class=""/>
    </g>
  </g>
</svg>
