<?xml version="1.0" encoding="UTF-8"?>
<svg xmlns="http://www.w3.org/2000/svg" xmlns:xlink="http://www.w3.org/1999/xlink" version="1.1" width="512" height="512" x="0" y="0" viewBox="0 0 64 64" style="enable-background:new 0 0 512 512" xml:space="preserve" class="">
  <g>
    <g data-name="Fire Insurance">
      <path d="M32 60a2.07 2.07 0 0 1-.803-.16 41.986 41.986 0 0 1-8.301-4.855C7.267 43.812 7.575 21.094 7.706 11.393c.008-.588.015-1.13.019-1.622a2.038 2.038 0 0 1 1.373-1.916A71.858 71.858 0 0 1 31.995 4a71.857 71.857 0 0 1 22.907 3.855 2.038 2.038 0 0 1 1.373 1.916c.004.492.011 1.034.019 1.622.131 9.7.439 32.419-15.19 43.592a41.986 41.986 0 0 1-8.301 4.854A2.07 2.07 0 0 1 32 60Zm-.028-2.004a.094.094 0 0 0 .056 0 39.661 39.661 0 0 0 7.913-4.638c14.778-10.565 14.48-32.55 14.353-41.938-.008-.593-.015-1.14-.019-1.635a65.482 65.482 0 0 0-8.85-2.42A70.082 70.082 0 0 0 31.995 6a69.864 69.864 0 0 0-22.25 3.748c-.024.533-.031 1.08-.039 1.672-.127 9.388-.425 31.373 14.353 41.938a39.661 39.661 0 0 0 7.913 4.638Z" fill="#ffffff" opacity="1" data-original="#000000" class=""/>
      <path d="M32 55.723a1.001 1.001 0 0 1-.43-.097 40.805 40.805 0 0 1-6.347-3.895c-13.915-9.947-13.63-31.636-13.524-39.8a1 1 0 0 1 .707-.944 68.427 68.427 0 0 1 6.562-1.66A68.068 68.068 0 0 1 32.015 8a67.932 67.932 0 0 1 13.017 1.326c2.2.443 4.408 1.002 6.562 1.662a1 1 0 0 1 .707.943c.107 8.165.39 29.853-13.523 39.8a40.718 40.718 0 0 1-6.349 3.895 1.001 1.001 0 0 1-.429.097ZM13.69 12.69c-.108 8.984-.011 28.33 12.696 37.414A40.6 40.6 0 0 0 32 53.611a40.49 40.49 0 0 0 5.614-3.507C50.321 41.02 50.418 21.674 50.31 12.69a66.307 66.307 0 0 0-5.672-1.404A65.84 65.84 0 0 0 32.015 10a66.02 66.02 0 0 0-12.653 1.287 66.362 66.362 0 0 0-5.672 1.403Z" fill="#ffffff" opacity="1" data-original="#000000" class=""/>
      <path d="M40.253 23.988a1 1 0 0 0-1.776.825 5.78 5.78 0 0 1 .04 2.539 14.37 14.37 0 0 0-3.052-7.317 13.054 13.054 0 0 0-9.445-4.866 1.111 1.111 0 0 0-.68 2.04 7.158 7.158 0 0 1 3.06 4.125 4.738 4.738 0 0 0-2.124-.876 1.122 1.122 0 0 0-1.086.47 1.102 1.102 0 0 0-.044 1.182c1.138 1.972.249 3.445-1.296 5.684l-.27.392c-2.58 3.773-2.567 7.726.034 10.847a10.699 10.699 0 0 0 6.777 3.649 5.887 5.887 0 0 0 1.24.152 5.23 5.23 0 0 0 .895-.084 9.344 9.344 0 0 0 3.132-.762c4.394-1.958 6.512-5.014 6.666-9.626.141-4.984-1.55-7.67-2.07-8.374Zm-9.825 16.653a2.684 2.684 0 0 1-1.73-1.351 2.311 2.311 0 0 1 .23-2.296 10.593 10.593 0 0 1 1.496-1.45 6.27 6.27 0 0 0 1.926-2.212 3.605 3.605 0 0 0 .217-.799A7.494 7.494 0 0 1 34.245 37c.007.73.026 2.67-1.151 3.447a2.371 2.371 0 0 1-.876.317 8.577 8.577 0 0 1-1.544-.069c-.082-.02-.164-.028-.246-.054Zm5.503-1.029a9.081 9.081 0 0 0 .314-2.631c-.036-3.804-2.633-6.536-4.176-7.826a1.161 1.161 0 0 0-1.81 1.353 2.743 2.743 0 0 1 .234 2.082 5.377 5.377 0 0 1-1.368 1.432 12.282 12.282 0 0 0-1.777 1.747 4.262 4.262 0 0 0-.768 3.309 7.895 7.895 0 0 1-1.43-1.326c-1.167-1.4-2.709-4.358.081-8.438l.265-.384c1.076-1.56 2.351-3.409 2.135-5.58a2.852 2.852 0 0 1 .619 1.566 1.112 1.112 0 0 0 2.195.123 8.926 8.926 0 0 0-1.625-7.303 10.988 10.988 0 0 1 5.087 3.553 12.56 12.56 0 0 1 2.567 9.754 1.11 1.11 0 0 0 1.974.853 11.06 11.06 0 0 0 1.654-2.873 16.129 16.129 0 0 1 .223 3.277 7.838 7.838 0 0 1-4.394 7.312Z" fill="#ffffff" opacity="1" data-original="#000000" class=""/>
    </g>
  </g>
</svg>
