<?xml version="1.0" encoding="UTF-8"?>
<svg xmlns="http://www.w3.org/2000/svg" xmlns:xlink="http://www.w3.org/1999/xlink" version="1.1" width="512" height="512" x="0" y="0" viewBox="0 0 510.909 510.909" style="enable-background:new 0 0 512 512" xml:space="preserve">
  <g>
    <path d="M475 100.486H121.478c-4.142 0-7.5 3.357-7.5 7.5s3.358 7.5 7.5 7.5H475c11.53 0 20.91 9.38 20.91 20.91v159.691c0 11.53-9.38 20.91-20.91 20.91h-17.959V268.13a7.5 7.5 0 0 0-7.5-7.5H61.368a7.5 7.5 0 0 0-7.5 7.5v48.867H35.91c-11.53 0-20.91-9.38-20.91-20.91V136.396c0-11.53 9.38-20.91 20.91-20.91h55.568c4.142 0 7.5-3.357 7.5-7.5s-3.358-7.5-7.5-7.5H35.91c-19.801 0-35.91 16.109-35.91 35.91v159.691c0 19.801 16.109 35.91 35.91 35.91h78.071a7.5 7.5 0 0 0 0-15H68.868v-13.184h298.061a7.5 7.5 0 0 0 7.5-7.5 7.5 7.5 0 0 0-7.5-7.5H68.868v-13.184h373.173v13.184h-45.112a7.5 7.5 0 0 0-7.5 7.5 7.5 7.5 0 0 0 7.5 7.5h45.112v13.184H143.98a7.5 7.5 0 0 0 0 15H475c19.801 0 35.91-16.109 35.91-35.91V136.396c-.001-19.8-16.11-35.91-35.91-35.91z" fill="#ffffff" opacity="1" data-original="#000000"/>
    <path d="M449.541 161.467a7.5 7.5 0 0 0 7.5-7.5 7.5 7.5 0 0 0-7.5-7.5H427.36a7.5 7.5 0 0 0-7.5 7.5 7.5 7.5 0 0 0 7.5 7.5h22.181zM393.139 161.467a7.5 7.5 0 0 0 7.5-7.5 7.5 7.5 0 0 0-7.5-7.5H251.183a7.5 7.5 0 0 0-7.5 7.5 7.5 7.5 0 0 0 7.5 7.5h141.956zM141.082 352.064a7.5 7.5 0 0 0-7.5 7.5c0 .223-.241 22.457-21.047 37.245a7.5 7.5 0 0 0 4.352 13.614 7.467 7.467 0 0 0 4.339-1.388c27.046-19.224 27.357-48.246 27.357-49.472a7.5 7.5 0 0 0-7.501-7.499zM194.783 352.064a7.5 7.5 0 0 0-7.5 7.5v43.358a7.5 7.5 0 0 0 7.5 7.5 7.5 7.5 0 0 0 7.5-7.5v-43.358a7.5 7.5 0 0 0-7.5-7.5zM257.564 352.064a7.5 7.5 0 0 0-7.5 7.5v43.358a7.5 7.5 0 0 0 7.5 7.5 7.5 7.5 0 0 0 7.5-7.5v-43.358a7.5 7.5 0 0 0-7.5-7.5zM398.375 396.809c-20.526-14.589-21.036-36.281-21.047-37.279a7.5 7.5 0 0 0-7.5-7.466 7.5 7.5 0 0 0-7.5 7.5c0 1.226.311 30.248 27.357 49.472a7.498 7.498 0 0 0 10.459-1.768 7.502 7.502 0 0 0-1.769-10.459zM316.126 352.064a7.5 7.5 0 0 0-7.5 7.5v43.358a7.5 7.5 0 0 0 7.5 7.5 7.5 7.5 0 0 0 7.5-7.5v-43.358a7.5 7.5 0 0 0-7.5-7.5z" fill="#ffffff" opacity="1" data-original="#000000"/>
  </g>
</svg>
