<?xml version="1.0" encoding="UTF-8"?>
<svg xmlns="http://www.w3.org/2000/svg" xmlns:xlink="http://www.w3.org/1999/xlink" version="1.1" width="512" height="512" x="0" y="0" viewBox="0 0 512 512" style="enable-background:new 0 0 512 512" xml:space="preserve">
  <g>
    <path d="M416 192h-8V48a8 8 0 0 0-8-8H112a8 8 0 0 0-8 8v368a8 8 0 0 0 8 8h288a8 8 0 0 0 8-8V272h8a8 8 0 0 0 8-8v-64a8 8 0 0 0-8-8zm-24 216H120V56h272v136h-8a8 8 0 0 0-8 8v64a8 8 0 0 0 8 8h8zm16-152h-16v-48h16z" fill="#ffffff" opacity="1" data-original="#000000"/>
    <path d="M200 320h112a8 8 0 0 0 8-8v-48a8 8 0 0 0-8-8H200a8 8 0 0 0-8 8v48a8 8 0 0 0 8 8zm8-48h96v32h-96zM328 336H184a8 8 0 0 0 0 16h144a8 8 0 0 0 0-16zM296 368h-80a8 8 0 0 0 0 16h80a8 8 0 0 0 0-16z" fill="#ffffff" opacity="1" data-original="#000000"/>
    <path d="M464 120a8 8 0 0 0 8-8V48a8 8 0 0 0-8-8h-16V28a28.031 28.031 0 0 0-28-28H92a28.031 28.031 0 0 0-28 28v12H48a8 8 0 0 0-8 8v64a8 8 0 0 0 8 8h16v224H48a8 8 0 0 0-8 8v64a8 8 0 0 0 8 8h16v12a28.031 28.031 0 0 0 28 28h44v40a8 8 0 0 0 8 8h32a8 8 0 0 0 8-8v-40h48v40a8 8 0 0 0 8 8h32a8 8 0 0 0 8-8v-40h48v40a8 8 0 0 0 8 8h32a8 8 0 0 0 8-8v-40h44a28.031 28.031 0 0 0 28-28v-12h16a8 8 0 0 0 8-8v-64a8 8 0 0 0-8-8h-16V120zm-16-64h8v48h-8zM64 408h-8v-48h8zm0-304h-8V56h8zm104 392h-16v-32h16zm96 0h-16v-32h16zm96 0h-16v-32h16zm72-60a12.01 12.01 0 0 1-12 12H92a12.01 12.01 0 0 1-12-12V28a12.01 12.01 0 0 1 12-12h328a12.01 12.01 0 0 1 12 12zm24-76v48h-8v-48z" fill="#ffffff" opacity="1" data-original="#000000"/>
    <path d="M303.29 148.69A8.019 8.019 0 0 0 296 144h-14.94l6.88-55.01a8 8 0 0 0-13.6-6.65l-64 64A8 8 0 0 0 216 160h16v56a8 8 0 0 0 14.02 5.27l56-64a8.019 8.019 0 0 0 1.27-8.58zM248 194.71V152a8 8 0 0 0-8-8h-4.69l33.86-33.86-5.11 40.87A8 8 0 0 0 272 160h6.37z" fill="#ffffff" opacity="1" data-original="#000000"/>
  </g>
</svg>
