<?xml version="1.0" encoding="UTF-8"?>
<svg xmlns="http://www.w3.org/2000/svg" xmlns:xlink="http://www.w3.org/1999/xlink" version="1.1" width="512" height="512" x="0" y="0" viewBox="0 0 60 60" style="enable-background:new 0 0 512 512" xml:space="preserve" class="">
  <g>
    <g fill="#000" fill-rule="nonzero">
      <path d="M58 54.184V20c0-9.941-8.059-18-18-18s-18 8.059-18 18v2.184A3 3 0 0 0 20 25v10a3 3 0 0 0 2 2.816V40a2 2 0 1 1-4 0V5.816A2.993 2.993 0 0 0 17 0H3a2.993 2.993 0 0 0-1 5.816V40c0 9.941 8.059 18 18 18s18-8.059 18-18v-2.184A3 3 0 0 0 40 35V25a3 3 0 0 0-2-2.816V20a2 2 0 1 1 4 0v34.184A2.993 2.993 0 0 0 43 60h14a2.993 2.993 0 0 0 1-5.816zM3 2h14a1 1 0 0 1 0 2H3a1 1 0 1 1 0-2zm17 54c-8.832-.01-15.99-7.168-16-16V6h12v34a4 4 0 1 0 8 0v-2h12v2c-.01 8.832-7.168 15.99-16 16zm18-21a1 1 0 0 1-1 1H23a1 1 0 0 1-1-1V25a1 1 0 0 1 1-1h14a1 1 0 0 1 1 1zm2-19a4 4 0 0 0-4 4v2H24v-2c0-8.837 7.163-16 16-16s16 7.163 16 16v34H44V20a4 4 0 0 0-4-4zm17 42H43a1 1 0 0 1 0-2h14a1 1 0 0 1 0 2z" fill="#ffffff" opacity="1" data-original="#000000" class=""/>
      <path d="M7 8a1 1 0 0 0-1 1v2a1 1 0 0 0 2 0V9a1 1 0 0 0-1-1zM7 14a1 1 0 0 0-1 1v14a1 1 0 0 0 2 0V15a1 1 0 0 0-1-1z" fill="#ffffff" opacity="1" data-original="#000000" class=""/>
    </g>
  </g>
</svg>
