<svg id="Capa_1" enable-background="new 0 0 511.875 511.875" height="512" viewBox="0 0 511.875 511.875" width="512" xmlns="http://www.w3.org/2000/svg"><g><path d="m236.677 98.562c0-33.05-26.888-59.938-59.938-59.938s-59.938 26.888-59.938 59.938 26.888 59.938 59.938 59.938 59.938-26.888 59.938-59.938zm-104.875 0c0-24.778 20.159-44.938 44.938-44.938s44.938 20.159 44.938 44.938-20.16 44.938-44.939 44.938-44.937-20.159-44.937-44.938z"/><path d="m193.507 73.806-24.049 28.503-9.139-12.653-12.16 8.783 20.381 28.217 36.431-43.177z"/><path d="m64.364 181.5h134.875v15h-134.875z"/><path d="m64.364 219.5h134.875v15h-134.875z"/><path d="m64.364 256.438h134.875v15h-134.875z"/><path d="m64.364 293.53h74.875v15h-74.875z"/><path d="m482.982 424.624-35.411-20.835-7.606 12.928 35.411 20.835c9.418 5.542 12.572 17.713 7.031 27.13-5.542 9.419-17.712 12.569-27.13 7.03l-100.558-59.168 20.099-34.159 52.274 30.757 7.606-12.928-52.427-30.848c2.32-5.243 2.811-11.071 1.351-16.704-1.712-6.607-5.895-12.152-11.777-15.613-5.883-3.461-12.763-4.425-19.369-2.713-4.06 1.053-7.716 3.041-10.737 5.78v-49.557c5.111-9.06 4.777-19.777 0-28.29v-258.269h-250.61l-79.39 79.522v191.478h15v-180.875h75v-75.125h225v229.911l-61.384-36.118c-13.697-8.061-31.395-3.472-39.453 10.224-3.904 6.635-4.99 14.393-3.059 21.844 1.495 5.77 4.667 10.816 9.099 14.614l-54.054 91.867c-5.473-2.031-11.424-2.354-17.194-.856-7.452 1.931-13.706 6.647-17.61 13.283-5.511 9.367-5.104 20.605.083 29.353h-116.428v-102.622h-15v117.621h149.896l38.885 22.879h-83.656v34.5h-25.125v50.375h230v-50.375h-25v-34.5h-37.644c3.545-6.46 4.486-13.905 2.629-21.069-.159-.613-.343-1.214-.539-1.81h40.533c-2.471 10.599 2.064 22.039 11.926 27.842 3.98 2.342 8.416 3.54 12.915 3.54 2.151 0 4.316-.273 6.454-.827 5.633-1.46 10.488-4.721 13.944-9.293l100.713 59.257c5.531 3.255 11.602 4.802 17.598 4.802 11.941 0 23.585-6.138 30.066-17.152 9.736-16.547 4.195-37.93-12.352-47.666zm-396.243-349.499h-49.415l49.415-49.497zm152.092 151.498c1.872-3.181 4.87-5.443 8.443-6.369 1.156-.3 2.327-.447 3.49-.447 2.433 0 4.832.648 6.984 1.914l65.902 38.776c6.567 3.864 8.767 12.352 4.903 18.919-3.865 6.566-12.351 8.764-18.918 4.902l-65.916-38.785c-3.174-1.873-5.431-4.867-6.356-8.436-.926-3.573-.405-7.292 1.468-10.474zm87.908 72.75v44.273l-34.245-20.09 14.19-24.117c3.23 1.191 6.583 1.782 9.91 1.782 3.473 0 6.909-.64 10.145-1.848zm-82.102-35.895 48.88 28.761-53.587 91.074-48.88-28.761zm-83.721 122.816c-6.567-3.864-8.767-12.352-4.903-18.919 1.872-3.182 4.871-5.443 8.444-6.369 1.156-.3 2.327-.448 3.49-.448 2.431 0 4.828.647 6.979 1.912l65.909 38.78c3.181 1.872 5.443 4.871 6.369 8.444s.405 7.293-1.467 10.474v.001c-1.872 3.181-4.87 5.443-8.443 6.369-3.574.926-7.293.405-10.475-1.467zm120.823 55.706v19.5h-47.375v15h72.375v20.375h-200v-20.375h112.5v-15h-87.375v-19.5zm-27.823-52.879 12.898-21.92 37.255 21.92zm20.505-34.849 10.467-17.789 41.1 24.112-10.498 17.842zm61.277 61.019c-1.43 2.43-3.72 4.157-6.449 4.864s-5.569.31-7.999-1.12c-5.015-2.951-6.694-9.433-3.744-14.447l32.284-54.867c1.43-2.43 3.72-4.157 6.448-4.864.883-.229 1.777-.342 2.665-.342 1.858 0 3.69.495 5.334 1.462 2.43 1.43 4.157 3.72 4.864 6.448.707 2.725.31 5.562-1.115 7.991z"/></g></svg>