<svg clip-rule="evenodd" fill-rule="evenodd" stroke-linejoin="round" stroke-miterlimit="2" viewBox="0 0 510 510" xmlns="http://www.w3.org/2000/svg" xmlns:serif="http://www.serif.com/"><path d="m107.017 366.449h-57.547c-22.919 0-41.47-18.556-41.47-41.441v-275.533c0-22.918 18.552-41.47 41.47-41.47h420.216c17.84 0 32.314 14.474 32.314 32.314v284.689c0 22.886-18.555 41.441-41.442 41.441h-137.424c.496 25.571 6.981 52.782 15.019 69.907h29.059c15.387 0 27.976 12.59 27.976 27.977s-12.589 27.977-27.976 27.977h-224.395c-15.388 0-27.977-12.59-27.977-27.977s12.589-27.977 27.977-27.977h28.983c2.721-5.961 5.204-13.153 7.304-21.066-14.878-2.129-28.696-7.545-40.694-15.489l-14.873 14.873c1.374 6.114-.309 12.79-5.049 17.53 0 0-64.281 64.282-64.273 64.273-7.326 7.352-19.358 7.361-26.71.009l-13.986-13.986c-7.35-7.35-7.35-19.353 0-26.702l64.281-64.282c4.738-4.738 11.42-6.419 17.532-5.049l14.872-14.872c-1.113-1.681-2.176-3.396-3.187-5.146zm209.153-14h144.388c15.155 0 27.442-12.286 27.442-27.441v-27.102h-196.783c1.157 6.075 1.763 12.345 1.763 18.756 0 12.614-2.344 24.68-6.621 35.787zm171.83-68.543v-243.587c0-10.111-8.203-18.314-18.314-18.314h-420.216c-15.181 0-27.47 12.289-27.47 27.47v234.431h77.215c13.549-38.936 50.577-66.881 94.127-66.881 43.551 0 80.578 27.945 94.128 66.881zm-466 14v27.102c0 15.156 12.291 27.441 27.47 27.441h50.855c-4.276-11.107-6.62-23.173-6.62-35.787 0-6.411.605-12.681 1.763-18.756zm300.912 138.45c-7.503-18.636-13.31-44.994-13.777-69.907h-29.468c-17.224 29.799-49.434 49.851-86.325 49.851-.014 0-.028 0-.042 0-1.832 7.283-3.976 14.067-6.318 20.056zm-146.829 14h-33.266c-7.688 0-13.977 6.29-13.977 13.977s6.289 13.977 13.977 13.977h224.395c7.687 0 13.976-6.29 13.976-13.977s-6.289-13.977-13.976-13.977h-33.304c-.051.001-.101.001-.151 0h-157.513c-.053.001-.107.001-.161 0zm-48.866-59.161c-2.966-2.634-5.774-5.442-8.407-8.408l-11.518 11.519 8.407 8.407zm61.084 10.959c1.668.097 3.349.146 5.041.146 47.294 0 85.638-38.344 85.638-85.638 0-47.293-38.344-85.637-85.638-85.637s-85.637 38.344-85.637 85.637c0 45.539 35.551 82.78 80.412 85.481.061.003.123.007.184.011zm-93.703-.742-.004-.005c-1.891-1.897-4.997-1.889-6.894.009l-64.282 64.281c-1.9 1.9-1.9 5.003 0 6.903l13.986 13.986c1.898 1.898 5.004 1.907 6.899.005l64.286-64.286c1.9-1.9 1.9-5.003 0-6.903zm-36.678-252.699c-3.863 0-7-3.137-7-7 0-3.864 3.137-7 7-7h55.49l24.944-54.112c1.211-2.627 3.914-4.239 6.801-4.055 2.887.183 5.364 2.124 6.233 4.883l20.923 66.457 31.428-90.272c1.045-3.002 3.983-4.923 7.153-4.677 3.169.246 5.775 2.597 6.345 5.725l20.218 111.067 23.006-32.095c1.314-1.834 3.433-2.921 5.689-2.921h44.673l30.737-78.715c1.113-2.852 3.95-4.649 7.003-4.438 3.054.212 5.616 2.382 6.326 5.36l26.181 109.762 13.787-28.056c1.177-2.396 3.613-3.913 6.282-3.913h50.941c3.863 0 7 3.136 7 7 0 3.863-3.137 7-7 7h-46.581l-20.443 41.601c-1.302 2.65-4.126 4.197-7.06 3.87-2.934-.328-5.346-2.461-6.031-5.333l-25.503-106.919-24.337 62.327c-1.049 2.686-3.637 4.454-6.52 4.454h-45.86l-30.531 42.592c-1.637 2.284-4.481 3.368-7.223 2.752s-4.85-2.812-5.353-5.576l-18.415-101.165-29.635 85.121c-.992 2.849-3.698 4.743-6.716 4.697-3.017-.045-5.665-2.019-6.571-4.897l-21.822-69.311-19.231 41.717c-1.143 2.481-3.625 4.07-6.357 4.07zm135.435 92.805c41.487 0 75.144 33.629 75.144 75.144 0 41.516-33.657 75.145-75.144 75.145-41.514 0-75.17-33.63-75.17-75.145 0-41.514 33.656-75.144 75.17-75.144zm0 14.614c-33.442 0-60.556 27.088-60.556 60.53 0 33.443 27.114 60.531 60.556 60.531 33.419 0 60.53-27.089 60.53-60.531 0-33.441-27.111-60.53-60.53-60.53zm3.672 103.946c-1.705 3.655-6.056 5.237-9.711 3.532s-5.237-6.057-3.532-9.711l13.965-29.93h-20.285c-2.498 0-4.822-1.275-6.164-3.381-1.341-2.107-1.514-4.752-.458-7.015l18.815-40.326c1.706-3.655 6.057-5.237 9.712-3.532 3.654 1.705 5.237 6.056 3.532 9.711l-13.965 29.929h20.285c2.497 0 4.821 1.276 6.163 3.382s1.514 4.752.459 7.015z"/></svg>