<?xml version="1.0" encoding="UTF-8"?>
<svg xmlns="http://www.w3.org/2000/svg" viewBox="0 0 64 64" width="512" height="512"><g id="Fire_Insurance" data-name="Fire Insurance"><path d="M32,60a2.0704,2.0704,0,0,1-.80273-.16064h0a41.986,41.986,0,0,1-8.30176-4.8545C7.26709,43.81152,7.57471,21.09375,7.70605,11.39258c.00782-.5874.01514-1.1294.01856-1.6211a2.03765,2.03765,0,0,1,1.37353-1.916A71.85832,71.85832,0,0,1,31.99512,4,71.85692,71.85692,0,0,1,54.90186,7.85547a2.03765,2.03765,0,0,1,1.37353,1.916c.00342.4917.01074,1.0337.01856,1.6211.13134,9.70117.439,32.41894-15.18946,43.59228a41.986,41.986,0,0,1-8.30176,4.8545A2.0704,2.0704,0,0,1,32,60Zm-.02832-2.00439a.09359.09359,0,0,0,.05664,0,39.66138,39.66138,0,0,0,7.91309-4.6377c14.77734-10.56494,14.48-32.5498,14.35254-41.938-.00782-.59277-.01514-1.13916-.01856-1.63476a65.48166,65.48166,0,0,0-8.8501-2.41993A70.0816,70.0816,0,0,0,31.99512,6,69.86391,69.86391,0,0,0,9.74463,9.748c-.02344.53271-.03076,1.0791-.03858,1.67187-.12744,9.38819-.4248,31.37305,14.35254,41.938a39.66138,39.66138,0,0,0,7.91309,4.6377Z"/><path d="M32,55.72266a1.00124,1.00124,0,0,1-.4292-.09668,40.80547,40.80547,0,0,1-6.34766-3.89453c-13.915-9.94727-13.63085-31.63624-13.52392-39.80127a1.00023,1.00023,0,0,1,.707-.94288c2.15039-.65966,4.35791-1.21826,6.562-1.66113A68.068,68.068,0,0,1,32.01465,8,67.93215,67.93215,0,0,1,45.03174,9.32617c2.20068.44238,4.4082,1.00147,6.5625,1.66211a1.00037,1.00037,0,0,1,.70654.94287c.10693,8.16455.39111,29.853-13.523,39.79932A40.71768,40.71768,0,0,1,32.4292,55.626,1.00124,1.00124,0,0,1,32,55.72266ZM13.68994,12.68994c-.1084,8.98389-.01123,28.33057,12.69629,37.41455A40.59909,40.59909,0,0,0,32,53.61084a40.49,40.49,0,0,0,5.61426-3.50732c12.707-9.083,12.8042-28.4292,12.6958-37.4126-1.86865-.55078-3.77344-1.02246-5.67236-1.40381A65.84048,65.84048,0,0,0,32.01465,10a66.02008,66.02008,0,0,0-12.65283,1.28711C17.46045,11.669,15.55566,12.14014,13.68994,12.68994Z"/><path d="M40.25342,23.98828a1,1,0,0,0-1.77686.8252,5.78011,5.78011,0,0,1,.03955,2.53857,14.3704,14.3704,0,0,0-3.05078-7.31689,13.05436,13.05436,0,0,0-9.4458-4.86621,1.11115,1.11115,0,0,0-.67871,2.03955,7.1582,7.1582,0,0,1,3.05908,4.125,4.7379,4.7379,0,0,0-2.12353-.876,1.122,1.122,0,0,0-1.08643.4707,1.10192,1.10192,0,0,0-.04443,1.18164c1.13818,1.97217.249,3.44483-1.2959,5.68409l-.26953.3916C21,31.9585,21.0127,35.91211,23.61426,39.03271a10.69875,10.69875,0,0,0,6.777,3.6493,5.88666,5.88666,0,0,0,1.2406.15246,5.23047,5.23047,0,0,0,.89428-.0849,9.3441,9.3441,0,0,0,3.13159-.76178c4.39454-1.95752,6.5127-5.01416,6.66651-9.626C42.46533,27.37793,40.7749,24.69287,40.25342,23.98828ZM30.42773,40.64063a2.684,2.684,0,0,1-1.72949-1.35108,2.31138,2.31138,0,0,1,.23047-2.29541,10.59259,10.59259,0,0,1,1.49512-1.45068A6.26955,6.26955,0,0,0,32.3501,33.332a3.60545,3.60545,0,0,0,.21679-.79883,7.49407,7.49407,0,0,1,1.67823,4.46729c.00732.73.02588,2.66943-1.15137,3.44678h-.00049a2.37115,2.37115,0,0,1-.87512.31646,8.57669,8.57669,0,0,1-1.54437-.06866C30.59155,40.67426,30.5097,40.66675,30.42773,40.64063ZM35.93085,39.612a9.08137,9.08137,0,0,0,.31427-2.631c-.03662-3.80371-2.63282-6.53614-4.17627-7.82569a1.16148,1.16148,0,0,0-1.81055,1.353,2.74337,2.74337,0,0,1,.23438,2.08154,5.37737,5.37737,0,0,1-1.36817,1.43262A12.28237,12.28237,0,0,0,27.34766,35.769a4.26234,4.26234,0,0,0-.76813,3.309A7.89515,7.89515,0,0,1,25.15039,37.752c-1.16748-1.3999-2.709-4.35791.08106-8.4375l.26416-.38476c1.07666-1.56055,2.35156-3.40869,2.13574-5.5791a2.85234,2.85234,0,0,1,.61816,1.56494,1.11188,1.11188,0,0,0,2.1958.12353,8.926,8.926,0,0,0-1.625-7.30322,10.98808,10.98808,0,0,1,5.08692,3.55322,12.56,12.56,0,0,1,2.5664,9.75391,1.11081,1.11081,0,0,0,1.97412.853,11.0595,11.0595,0,0,0,1.6543-2.873,16.12872,16.12872,0,0,1,.22315,3.27734A7.83834,7.83834,0,0,1,35.93085,39.612Z"/></g></svg>
